# xmcd CD database file
#
# Track frame offsets:
#	150
#	18348
#	36696
#	53844
#	70092
#	87765
#	105588
#	122436
#	140484
#	155157
#	170805
#
# Disc length: 2454 seconds
#
# Revision: 0
# Processed by: cddbd v1.5.2PL0 Copyright (c) Steve Scherf et al.
# Submitted via: CDex 1.70beta2
#
DISCID=9609940b
DTITLE=Jewel - Perfectly Clear
DYEAR=2008
DGENRE=Country
TTITLE0=Stronger Woman
TTITLE1=I Do
TTITLE2=Love Is A Garden
TTITLE3=Rosey And Mick
TTITLE4=Anyone But You
TTITLE5=Thump Thump
TTITLE6=Two Become One
TTITLE7='Til It Feels Like Cheating
TTITLE8=Everything Reminds Me Of You
TTITLE9=Loved By You [Cowboy Waltz]
TTITLE10=Perfectly Clear
EXTD=YEAR: 2008
EXTT0=
EXTT1=
EXTT2=
EXTT3=
EXTT4=
EXTT5=
EXTT6=
EXTT7=
EXTT8=
EXTT9=
EXTT10=
PLAYORDER=
